<svg width="171" height="40" viewBox="0 0 171 40" fill="none" xmlns="http://www.w3.org/2000/svg">
<g id="Layer_1-2">
<path id="Vector" d="M26.2812 22.8356C27.5912 24.5107 28.2448 26.6046 28.2448 29.1145C28.2448 30.6587 27.9908 32.0721 27.4828 33.3518C26.9748 34.6314 26.227 35.7482 25.2366 36.6963C24.2462 37.6443 22.9704 38.3801 21.4121 38.9065C19.8537 39.4329 18.0671 39.6976 16.0521 39.6976H0.5V1.39307H14.0627C18.0585 1.39307 21.1038 2.19283 23.1959 3.78946C25.288 5.38609 26.3354 7.70396 26.3354 10.7402C26.3354 11.9325 26.1556 13.0609 25.7931 14.1225C25.4307 15.184 24.8199 16.1844 23.958 17.1238C23.096 18.0631 22.0114 18.7873 20.7043 19.2962V19.4009C23.116 20.0146 24.974 21.1604 26.2841 22.8356H26.2812ZM7.81224 17.083H13.1352C14.1683 17.083 15.0988 16.9289 15.9265 16.6235C16.7542 16.3153 17.4392 15.8151 17.9814 15.1229C18.5237 14.4307 18.7949 13.5728 18.7949 12.5549C18.7949 11.6417 18.5865 10.8623 18.1755 10.2109C17.7617 9.56233 17.091 9.04757 16.1605 8.6695C15.2301 8.29142 14.0599 8.10239 12.6471 8.10239H7.81509V17.0801L7.81224 17.083ZM17.305 32.4967C18.2954 32.1361 19.0746 31.5923 19.6425 30.8652C20.2105 30.1382 20.4959 29.2366 20.4959 28.1664C20.4959 26.6221 19.9308 25.4064 18.8034 24.5194C17.6761 23.6324 16.0349 23.1904 13.8829 23.1904H7.81224V33.0348H13.8059C15.1502 33.0348 16.3146 32.8545 17.305 32.4938V32.4967Z" fill="#0873BB"/>
<path id="Vector_2" d="M31.8924 14.9019H38.8165V39.6946H31.8924V14.9019Z" fill="#0873BB"/>
<g id="Clip path group">
<mask id="mask0_15_575" style="mask-type:luminance" maskUnits="userSpaceOnUse" x="29" y="0" width="44" height="40">
<g id="clippath">
<path id="Vector_3" d="M57.1285 8.80617C59.8656 8.80617 62.3857 9.53904 64.8346 10.935C67.212 12.3281 69.0843 14.1632 70.4515 16.5857C71.8186 18.9327 72.4665 21.5007 72.4665 24.217C72.4665 26.9333 71.8186 29.6467 70.4515 31.9936C69.0843 34.4162 67.212 36.324 64.9059 37.6443C62.5284 39.0374 59.9369 39.6975 57.1285 39.6975C53.0242 39.6975 49.4224 38.2289 46.5426 35.2218C43.5914 32.2146 42.0787 28.6171 42.0787 24.2897C42.0787 22.821 42.2956 21.4279 42.5839 20.1076C43.3031 17.4669 43.4487 14.7506 41.936 13.2092C41.0712 12.3281 39.6327 11.3014 37.5435 12.0343C37.5435 12.0343 35.7426 12.2553 35.5285 12.2553C33.8731 12.2553 32.5032 11.6679 31.2788 10.4202C30.1257 9.24531 29.5492 7.77956 29.5492 6.01716C29.5492 4.25476 30.1257 2.93442 31.2788 1.7624C32.4318 0.587465 33.8703 0 35.4543 0C37.0384 0 38.4797 0.587465 39.7041 1.8351C40.8572 3.01003 41.2168 4.47579 41.4337 6.16548C41.722 8.58805 42.8008 9.39363 43.5943 10.0538C45.7548 11.9616 49.7163 10.4202 52.6675 9.53904C54.1088 9.02428 55.5473 8.80617 57.1313 8.80617H57.1285ZM57.1998 15.7743C54.9679 15.7743 53.0956 16.5828 51.5829 18.1213C50.0702 19.7354 49.351 21.7886 49.351 24.2838C49.351 26.7791 50.0702 28.905 51.5829 30.4464C53.0242 32.0605 54.8965 32.869 57.1998 32.869C59.5031 32.869 61.3754 32.0605 62.8881 30.4464C64.4007 28.8323 65.12 26.7791 65.12 24.2838C65.12 21.7886 64.4007 19.7354 62.8881 18.1213C61.4467 16.5799 59.5031 15.7743 57.1998 15.7743Z" fill="white"/>
</g>
</mask>
<g mask="url(#mask0_15_575)">
<g id="Group">
<path id="Vector_4" d="M49.4338 15.7744L49.351 15.9053V15.7744H49.4338Z" fill="#3AA5D4"/>
<path id="Vector_5" d="M49.8619 15.7744L49.351 16.5829V15.9053L49.4338 15.7744H49.8619Z" fill="#3BA6D5"/>
<path id="Vector_6" d="M50.29 15.7744L49.351 17.2605V16.5829L49.8619 15.7744H50.29Z" fill="#3CA7D5"/>
<path id="Vector_7" d="M50.7181 15.7744L49.351 17.9381V17.2605L50.29 15.7744H50.7181Z" fill="#3DA8D6"/>
<path id="Vector_8" d="M51.1462 15.7744L49.351 18.6158V17.9381L50.7181 15.7744H51.1462Z" fill="#3EA9D6"/>
<path id="Vector_9" d="M51.5744 15.7744L49.351 19.2934V18.6158L51.1462 15.7744H51.5744Z" fill="#3FAAD7"/>
<path id="Vector_10" d="M52.0025 15.7744L49.351 19.971V19.2934L51.5744 15.7744H52.0025Z" fill="#40ABD7"/>
<path id="Vector_11" d="M52.4306 15.7744L49.351 20.6486V19.971L52.0025 15.7744H52.4306Z" fill="#41ACD8"/>
<path id="Vector_12" d="M52.8587 15.7744L49.351 21.3263V20.6486L52.4306 15.7744H52.8587Z" fill="#42ADD8"/>
<path id="Vector_13" d="M53.2868 15.7744L49.351 22.0039V21.3263L52.8587 15.7744H53.2868Z" fill="#43AED9"/>
<path id="Vector_14" d="M53.7121 15.7744L49.351 22.6815V22.0039L53.2868 15.7744H53.7121Z" fill="#44AFD9"/>
<path id="Vector_15" d="M54.1402 15.7744L49.351 23.3591V22.6815L53.7121 15.7744H54.1402Z" fill="#45B0DA"/>
<path id="Vector_16" d="M54.5683 15.7744L49.351 24.0367V23.3591L54.1402 15.7744H54.5683Z" fill="#46B1DA"/>
<path id="Vector_17" d="M54.9964 15.7744L49.351 24.7144V24.0367L54.5683 15.7744H54.9964Z" fill="#48B2DB"/>
<path id="Vector_18" d="M55.4246 15.7744L49.351 25.392V24.7144L54.9964 15.7744H55.4246Z" fill="#49B3DB"/>
<path id="Vector_19" d="M55.8527 15.7744L49.351 26.0696V25.392L55.4246 15.7744H55.8527Z" fill="#4AB4DC"/>
<path id="Vector_20" d="M56.2808 15.7744L49.351 26.7472V26.0696L55.8527 15.7744H56.2808Z" fill="#4BB5DC"/>
<path id="Vector_21" d="M56.7089 15.7744L49.351 27.4248V26.7472L56.2808 15.7744H56.7089Z" fill="#4CB6DD"/>
<path id="Vector_22" d="M57.137 15.7744L49.351 28.1025V27.4248L56.7089 15.7744H57.137Z" fill="#4DB7DD"/>
<path id="Vector_23" d="M57.5652 15.7744L49.351 28.7801V28.1025L57.137 15.7744H57.5652Z" fill="#4EB8DE"/>
<path id="Vector_24" d="M57.9933 15.7744L49.351 29.4577V28.7801L57.5651 15.7744H57.9933Z" fill="#4FB9DE"/>
<path id="Vector_25" d="M58.4214 15.7744L49.351 30.1353V29.4577L57.9933 15.7744H58.4214Z" fill="#50BADF"/>
<path id="Vector_26" d="M58.8495 15.7744L49.5594 30.4843L49.351 30.3476V30.1353L58.4214 15.7744H58.8495Z" fill="#51BBDF"/>
<path id="Vector_27" d="M59.2776 15.7744L49.8619 30.6821L49.5594 30.4843L58.8495 15.7744H59.2776Z" fill="#52BCE0"/>
<path id="Vector_28" d="M59.7057 15.7744L50.1644 30.8827L49.8619 30.6821L59.2776 15.7744H59.7057Z" fill="#53BDE0"/>
<path id="Vector_29" d="M60.1338 15.7744L50.467 31.0805L50.1644 30.8827L59.7057 15.7744H60.1338Z" fill="#54BEE1"/>
<path id="Vector_30" d="M60.5619 15.7744L50.7695 31.2783L50.4669 31.0805L60.1338 15.7744H60.5619Z" fill="#55BFE1"/>
<path id="Vector_31" d="M60.9901 15.7744L51.072 31.476L50.7695 31.2783L60.562 15.7744H60.9901Z" fill="#56C0E2"/>
<path id="Vector_32" d="M61.2726 15.7744L61.3754 15.8413L51.3746 31.6767L51.072 31.476L60.9901 15.7744H61.2726Z" fill="#57C1E2"/>
<path id="Vector_33" d="M61.3724 15.8396L51.3738 31.6729L51.6762 31.8711L61.6748 16.0379L61.3724 15.8396Z" fill="#58C2E3"/>
<path id="Vector_34" d="M61.6736 16.0393L51.675 31.8726L51.9774 32.0708L61.976 16.2376L61.6736 16.0393Z" fill="#59C3E3"/>
<path id="Vector_35" d="M61.9777 16.2361L51.9791 32.0693L52.2815 32.2676L62.2801 16.4343L61.9777 16.2361Z" fill="#5AC4E4"/>
<path id="Vector_36" d="M62.2789 16.4328L52.2803 32.2661L52.5828 32.4644L62.5813 16.6311L62.2789 16.4328Z" fill="#5BC5E4"/>
<path id="Vector_37" d="M62.5826 16.634L52.584 32.4673L52.8864 32.6656L62.885 16.8323L62.5826 16.634Z" fill="#5CC6E5"/>
<path id="Vector_38" d="M62.8866 16.8308L52.8881 32.6641L53.1905 32.8624L63.1891 17.0291L62.8866 16.8308Z" fill="#5DC7E5"/>
<path id="Vector_39" d="M63.1906 17.0337L63.4931 17.2315L53.6151 32.872H53.2012L53.1898 32.8662L63.1906 17.0337Z" fill="#5EC8E6"/>
<path id="Vector_40" d="M63.4931 17.2314L63.7957 17.4292L54.0432 32.872H53.6151L63.4931 17.2314Z" fill="#5FC9E6"/>
<path id="Vector_41" d="M63.7957 17.4292L64.0982 17.6299L54.4713 32.872H54.0432L63.7957 17.4292Z" fill="#60CAE7"/>
<path id="Vector_42" d="M64.0982 17.6299L64.4007 17.8276L54.8994 32.872H54.4713L64.0982 17.6299Z" fill="#61CBE7"/>
<path id="Vector_43" d="M64.4007 17.8276L64.7033 18.0254L55.3275 32.872H54.8994L64.4007 17.8276Z" fill="#62CCE8"/>
<path id="Vector_44" d="M64.7033 18.0254L65.0058 18.2232L55.7556 32.872H55.3275L64.7033 18.0254Z" fill="#63CDE8"/>
<path id="Vector_45" d="M65.0058 18.2231L65.12 18.2988V18.7205L56.1837 32.872H55.7556L65.0058 18.2231Z" fill="#64CEE9"/>
<path id="Vector_46" d="M65.12 19.3978L56.6119 32.8717H56.1837L65.12 18.7202V19.3978Z" fill="#65CFE9"/>
<path id="Vector_47" d="M65.12 20.0756L57.04 32.8718H56.6119L65.12 19.3979V20.0756Z" fill="#66D0EA"/>
<path id="Vector_48" d="M65.12 20.7533L57.4681 32.872H57.04L65.12 20.0757V20.7533Z" fill="#67D1EA"/>
<path id="Vector_49" d="M65.12 21.431L57.8962 32.8721H57.4681L65.12 20.7534V21.431Z" fill="#68D2EB"/>
<path id="Vector_50" d="M65.12 22.1083L58.3243 32.8717H57.8962L65.12 21.4307V22.1083Z" fill="#69D3EB"/>
<path id="Vector_51" d="M65.12 22.786L58.7525 32.8718H58.3243L65.12 22.1084V22.786Z" fill="#6AD4EC"/>
<path id="Vector_52" d="M65.12 23.4638L59.1806 32.8719H58.7524L65.12 22.7861V23.4638Z" fill="#6BD5EC"/>
<path id="Vector_53" d="M65.12 24.1415L59.6058 32.872H59.1806L65.12 23.4639V24.1415Z" fill="#6CD6ED"/>
<path id="Vector_54" d="M65.12 24.8187L60.034 32.8717H59.6058L65.12 24.1411V24.8187Z" fill="#6DD7ED"/>
<path id="Vector_55" d="M65.12 25.4965L60.4621 32.8718H60.0339L65.12 24.8188V25.4965Z" fill="#6ED8EE"/>
<path id="Vector_56" d="M65.12 26.1742L60.8902 32.8719H60.4621L65.12 25.4966V26.1742Z" fill="#6FD9EE"/>
<path id="Vector_57" d="M65.12 26.8519L61.3183 32.872H60.8902L65.12 26.1743V26.8519Z" fill="#70DAEF"/>
<path id="Vector_58" d="M65.12 27.5297L61.7464 32.8721H61.3183L65.12 26.8521V27.5297Z" fill="#71DBEF"/>
<path id="Vector_59" d="M65.12 28.2069L62.1745 32.8717H61.7464L65.12 27.5293V28.2069Z" fill="#72DCF0"/>
<path id="Vector_60" d="M65.12 28.8847L62.6026 32.8719H62.1745L65.12 28.207V28.8847Z" fill="#73DDF0"/>
<path id="Vector_61" d="M65.12 29.5624L63.0308 32.872H62.6027L65.12 28.8848V29.5624Z" fill="#74DEF1"/>
<path id="Vector_62" d="M65.12 30.2401L63.4589 32.8721H63.0308L65.12 29.5625V30.2401Z" fill="#75DFF1"/>
<path id="Vector_63" d="M65.12 30.9174L63.887 32.8717H63.4589L65.12 30.2397V30.9174Z" fill="#76E0F2"/>
<path id="Vector_64" d="M65.12 31.5951L64.3151 32.8718H63.887L65.12 30.9175V31.5951Z" fill="#77E1F2"/>
<path id="Vector_65" d="M65.12 32.2728L64.7432 32.8719H64.3151L65.12 31.5952V32.2728Z" fill="#78E2F3"/>
<path id="Vector_66" d="M64.7432 32.872L65.12 32.2729V32.872H64.7432Z" fill="#79E3F3"/>
<path id="Vector_67" d="M37.5692 0L29.5492 12.7003V0H37.5692Z" fill="#0873BB"/>
<path id="Vector_68" d="M37.9973 0L29.5492 13.3779V12.7003L37.5692 0H37.9973Z" fill="#0873BB"/>
<path id="Vector_69" d="M38.4255 0L29.5492 14.0555V13.3779L37.9973 0H38.4255Z" fill="#0974BC"/>
<path id="Vector_70" d="M38.8536 0L29.5492 14.7332V14.0555L38.4255 0H38.8536Z" fill="#0A75BC"/>
<path id="Vector_71" d="M39.2817 0L29.5492 15.4108V14.7332L38.8536 0H39.2817Z" fill="#0B76BD"/>
<path id="Vector_72" d="M39.7098 0L29.5492 16.0884V15.4108L39.2817 0H39.7098Z" fill="#0C77BD"/>
<path id="Vector_73" d="M40.1379 0L29.5492 16.766V16.0884L39.7098 0H40.1379Z" fill="#0D78BE"/>
<path id="Vector_74" d="M40.566 0L29.5492 17.4437V16.766L40.1379 0H40.566Z" fill="#0E79BE"/>
<path id="Vector_75" d="M40.9942 0L29.5492 18.1213V17.4437L40.566 0H40.9942Z" fill="#0F7ABF"/>
<path id="Vector_76" d="M41.4223 0L29.5492 18.7989V18.1213L40.9942 0H41.4223Z" fill="#107BBF"/>
<path id="Vector_77" d="M41.8504 0L29.5492 19.4765V18.7989L41.4223 0H41.8504Z" fill="#117CC0"/>
<path id="Vector_78" d="M42.2785 0L29.5492 20.1541V19.4765L41.8504 0H42.2785Z" fill="#127DC0"/>
<path id="Vector_79" d="M42.7066 0L29.5492 20.8318V20.1541L42.2785 0H42.7066Z" fill="#137EC1"/>
<path id="Vector_80" d="M43.1347 0L29.5492 21.5094V20.8318L42.7066 0H43.1347Z" fill="#147FC1"/>
<path id="Vector_81" d="M43.5629 0L29.5492 22.187V21.5094L43.1347 0H43.5629Z" fill="#1580C2"/>
<path id="Vector_82" d="M43.991 0L29.5492 22.8646V22.187L43.5629 0H43.991Z" fill="#1681C2"/>
<path id="Vector_83" d="M44.4162 0L29.5492 23.5422V22.8646L43.991 0H44.4162Z" fill="#1782C3"/>
<path id="Vector_84" d="M44.8444 0L29.5492 24.2199V23.5422L44.4162 0H44.8444Z" fill="#1883C3"/>
<path id="Vector_85" d="M45.2725 0L29.5492 24.8975V24.2199L44.8444 0H45.2725Z" fill="#1984C4"/>
<path id="Vector_86" d="M45.7006 0L29.5492 25.5751V24.8975L45.2725 0H45.7006Z" fill="#1A85C4"/>
<path id="Vector_87" d="M46.1287 0L29.7118 25.9939L29.5492 25.8863V25.5751L45.7006 0H46.1287Z" fill="#1B86C5"/>
<path id="Vector_88" d="M46.5568 0L30.0144 26.1917L29.7119 25.9939L46.1287 0H46.5568Z" fill="#1C87C5"/>
<path id="Vector_89" d="M46.9849 0L30.3169 26.3894L30.0144 26.1917L46.5568 0H46.9849Z" fill="#1D88C6"/>
<path id="Vector_90" d="M47.4131 0L30.6195 26.5901L30.3169 26.3894L46.9849 0H47.4131Z" fill="#1E89C6"/>
<path id="Vector_91" d="M47.8412 0L30.922 26.7878L30.6194 26.5901L47.413 0H47.8412Z" fill="#1F8AC7"/>
<path id="Vector_92" d="M48.2693 0L31.2245 26.9856L30.922 26.7878L47.8412 0H48.2693Z" fill="#208BC7"/>
<path id="Vector_93" d="M48.6974 0L31.5271 27.1834L31.2245 26.9856L48.2693 0H48.6974Z" fill="#218CC8"/>
<path id="Vector_94" d="M49.1255 0L31.8296 27.384L31.5271 27.1834L48.6974 0H49.1255Z" fill="#228DC8"/>
<path id="Vector_95" d="M49.468 0L49.5279 0.0407154L32.1321 27.5818L31.8296 27.384L49.1255 0H49.468Z" fill="#238EC9"/>
<path id="Vector_96" d="M49.5268 0.0374012L32.1335 27.5806L32.4359 27.7789L49.8292 0.235689L49.5268 0.0374012Z" fill="#248FC9"/>
<path id="Vector_97" d="M49.828 0.233684L32.4347 27.7769L32.7371 27.9751L50.1304 0.431971L49.828 0.233684Z" fill="#2590CA"/>
<path id="Vector_98" d="M50.1292 0.433394L32.7359 27.9766L33.0384 28.1749L50.4316 0.631682L50.1292 0.433394Z" fill="#2691CA"/>
<path id="Vector_99" d="M50.4357 0.632125L33.0424 28.1753L33.3448 28.3736L50.7381 0.830412L50.4357 0.632125Z" fill="#2792CB"/>
<path id="Vector_100" d="M50.7369 0.831832L33.3437 28.375L33.6461 28.5733L51.0393 1.03012L50.7369 0.831832Z" fill="#2893CB"/>
<path id="Vector_101" d="M51.0382 1.02812L33.6449 28.5713L33.9473 28.7696L51.3406 1.22641L51.0382 1.02812Z" fill="#2994CC"/>
<path id="Vector_102" d="M51.3394 1.22783L33.9461 28.771L34.2485 28.9693L51.6418 1.42612L51.3394 1.22783Z" fill="#2A95CC"/>
<path id="Vector_103" d="M51.6459 1.42655L34.2526 28.9697L34.555 29.168L51.9483 1.62484L51.6459 1.42655Z" fill="#2B96CD"/>
<path id="Vector_104" d="M51.9471 1.62578L34.5538 29.1689L34.8563 29.3672L52.2495 1.82406L51.9471 1.62578Z" fill="#2C97CD"/>
<path id="Vector_105" d="M52.2483 1.82255L34.8551 29.3657L35.1575 29.564L52.5508 2.02084L52.2483 1.82255Z" fill="#2D98CE"/>
<path id="Vector_106" d="M52.5496 2.02226L35.1563 29.5654L35.4587 29.7637L52.852 2.22055L52.5496 2.02226Z" fill="#2E99CE"/>
<path id="Vector_107" d="M52.8561 2.22099L35.4628 29.7642L35.7652 29.9624L53.1585 2.41928L52.8561 2.22099Z" fill="#2F9ACF"/>
<path id="Vector_108" d="M53.1573 2.42021L35.764 29.9634L36.0664 30.1617L53.4597 2.6185L53.1573 2.42021Z" fill="#309BCF"/>
<path id="Vector_109" d="M53.4585 2.61699L36.0652 30.1602L36.3677 30.3584L53.7609 2.81528L53.4585 2.61699Z" fill="#319CD0"/>
<path id="Vector_110" d="M53.7598 2.81377L36.3665 30.3569L36.6689 30.5552L54.0622 3.01205L53.7598 2.81377Z" fill="#329DD0"/>
<path id="Vector_111" d="M54.0662 3.01543L36.673 30.5586L36.9754 30.7569L54.3687 3.21371L54.0662 3.01543Z" fill="#339ED1"/>
<path id="Vector_112" d="M54.3675 3.2122L36.9742 30.7554L37.2766 30.9537L54.6699 3.41049L54.3675 3.2122Z" fill="#349FD1"/>
<path id="Vector_113" d="M54.6702 3.40898L37.277 30.9521L37.5794 31.1504L54.9727 3.60727L54.6702 3.40898Z" fill="#35A0D2"/>
<path id="Vector_114" d="M54.9743 3.60576L37.5811 31.1489L37.8835 31.3472L55.2767 3.80405L54.9743 3.60576Z" fill="#36A1D2"/>
<path id="Vector_115" d="M55.278 3.80742L37.8847 31.3506L38.1871 31.5489L55.5804 4.00571L55.278 3.80742Z" fill="#37A2D3"/>
<path id="Vector_116" d="M55.5792 4.00419L38.1859 31.5474L38.4883 31.7457L55.8816 4.20248L55.5792 4.00419Z" fill="#38A3D3"/>
<path id="Vector_117" d="M55.8804 4.20342L38.4872 31.7466L38.7896 31.9449L56.1828 4.40171L55.8804 4.20342Z" fill="#39A4D4"/>
<path id="Vector_118" d="M56.1845 4.40019L38.7913 31.9434L39.0937 32.1416L56.4869 4.59848L56.1845 4.40019Z" fill="#3AA5D4"/>
<path id="Vector_119" d="M56.4881 4.60185L39.0949 32.145L39.3973 32.3433L56.7906 4.80014L56.4881 4.60185Z" fill="#3BA6D5"/>
<path id="Vector_120" d="M56.7894 4.79863L39.3961 32.3418L39.6985 32.5401L57.0918 4.99692L56.7894 4.79863Z" fill="#3CA7D5"/>
<path id="Vector_121" d="M57.0906 4.99785L39.6973 32.541L39.9997 32.7393L57.393 5.19613L57.0906 4.99785Z" fill="#3DA8D6"/>
<path id="Vector_122" d="M57.3947 5.19462L40.0014 32.7378L40.3039 32.9361L57.6971 5.39291L57.3947 5.19462Z" fill="#3EA9D6"/>
<path id="Vector_123" d="M57.6959 5.39433L40.3026 32.9375L40.6051 33.1358L57.9983 5.59262L57.6959 5.39433Z" fill="#3FAAD7"/>
<path id="Vector_124" d="M57.9996 5.59307L40.6063 33.1362L40.9087 33.3345L58.302 5.79135L57.9996 5.59307Z" fill="#40ABD7"/>
<path id="Vector_125" d="M58.3036 5.79228L40.9104 33.3354L41.2128 33.5337L58.6061 5.99057L58.3036 5.79228Z" fill="#41ACD8"/>
<path id="Vector_126" d="M58.6049 5.98905L41.2116 33.5322L41.514 33.7305L58.9073 6.18734L58.6049 5.98905Z" fill="#42ADD8"/>
<path id="Vector_127" d="M58.9061 6.18877L41.5128 33.7319L41.8153 33.9302L59.2085 6.38705L58.9061 6.18877Z" fill="#43AED9"/>
<path id="Vector_128" d="M59.2097 6.3875L41.8165 33.9307L42.1189 34.129L59.5122 6.58578L59.2097 6.3875Z" fill="#44AFD9"/>
<path id="Vector_129" d="M59.5138 6.58671L42.1205 34.1299L42.423 34.3282L59.8162 6.785L59.5138 6.58671Z" fill="#45B0DA"/>
<path id="Vector_130" d="M59.8151 6.78349L42.4218 34.3267L42.7242 34.5249L60.1175 6.98178L59.8151 6.78349Z" fill="#46B1DA"/>
<path id="Vector_131" d="M60.1163 6.9832L42.723 34.5264L43.0254 34.7247L60.4187 7.18149L60.1163 6.9832Z" fill="#48B2DB"/>
<path id="Vector_132" d="M60.4199 7.18193L43.0266 34.7251L43.3291 34.9234L60.7223 7.38021L60.4199 7.18193Z" fill="#49B3DB"/>
<path id="Vector_133" d="M60.724 7.37822L43.3307 34.9214L43.6332 35.1197L61.0264 7.57651L60.724 7.37822Z" fill="#4AB4DC"/>
<path id="Vector_134" d="M61.0252 7.57793L43.632 35.1211L43.9344 35.3194L61.3276 7.77621L61.0252 7.57793Z" fill="#4BB5DC"/>
<path id="Vector_135" d="M61.3265 7.7747L43.9332 35.3179L44.2356 35.5162L61.6289 7.97299L61.3265 7.7747Z" fill="#4CB6DD"/>
<path id="Vector_136" d="M61.6301 7.97637L44.2368 35.5195L44.5393 35.7178L61.9325 8.17465L61.6301 7.97637Z" fill="#4DB7DD"/>
<path id="Vector_137" d="M61.9342 8.17266L44.5409 35.7158L44.8433 35.9141L62.2366 8.37094L61.9342 8.17266Z" fill="#4EB8DE"/>
<path id="Vector_138" d="M62.2354 8.37236L44.8422 35.9155L45.1446 36.1138L62.5379 8.57065L62.2354 8.37236Z" fill="#4FB9DE"/>
<path id="Vector_139" d="M62.5366 8.56913L45.1434 36.1123L45.4458 36.3106L62.8391 8.76742L62.5366 8.56913Z" fill="#50BADF"/>
<path id="Vector_140" d="M62.8447 8.76836L45.4514 36.3115L45.7538 36.5098L63.1471 8.96665L62.8447 8.76836Z" fill="#51BBDF"/>
<path id="Vector_141" d="M63.1459 8.96465L45.7527 36.5078L46.0551 36.7061L63.4483 9.16293L63.1459 8.96465Z" fill="#52BCE0"/>
<path id="Vector_142" d="M63.4471 9.16435L46.0539 36.7075L46.3563 36.9058L63.7496 9.36264L63.4471 9.16435Z" fill="#53BDE0"/>
<path id="Vector_143" d="M63.7484 9.36113L46.3551 36.9043L46.6575 37.1026L64.0508 9.55941L63.7484 9.36113Z" fill="#54BEE1"/>
<path id="Vector_144" d="M64.0549 9.5623L46.6616 37.1055L46.964 37.3038L64.3573 9.76059L64.0549 9.5623Z" fill="#55BFE1"/>
<path id="Vector_145" d="M64.3561 9.75908L46.9628 37.3022L47.2652 37.5005L64.6585 9.95737L64.3561 9.75908Z" fill="#56C0E2"/>
<path id="Vector_146" d="M64.6573 9.95879L47.2641 37.502L47.5665 37.7002L64.9598 10.1571L64.6573 9.95879Z" fill="#57C1E2"/>
<path id="Vector_147" d="M64.9586 10.1556L47.5653 37.6987L47.8677 37.897L65.261 10.3539L64.9586 10.1556Z" fill="#58C2E3"/>
<path id="Vector_148" d="M65.265 10.3567L47.8718 37.8999L48.1742 38.0982L65.5675 10.555L65.265 10.3567Z" fill="#59C3E3"/>
<path id="Vector_149" d="M65.5663 10.5535L48.173 38.0967L48.4754 38.295L65.8687 10.7518L65.5663 10.5535Z" fill="#5AC4E4"/>
<path id="Vector_150" d="M65.8675 10.7532L48.4742 38.2964L48.7767 38.4947L66.1699 10.9515L65.8675 10.7532Z" fill="#5BC5E4"/>
<path id="Vector_151" d="M66.1688 10.95L48.7755 38.4932L49.0779 38.6915L66.4712 11.1483L66.1688 10.95Z" fill="#5CC6E5"/>
<path id="Vector_152" d="M66.4728 11.1497L49.0796 38.6929L49.382 38.8912L66.7752 11.348L66.4728 11.1497Z" fill="#5DC7E5"/>
<path id="Vector_153" d="M66.7764 11.3479L49.3832 38.8911L49.6856 39.0894L67.0789 11.5462L66.7764 11.3479Z" fill="#5EC8E6"/>
<path id="Vector_154" d="M67.0777 11.5447L49.6844 39.0879L49.9868 39.2862L67.3801 11.743L67.0777 11.5447Z" fill="#5FC9E6"/>
<path id="Vector_155" d="M67.3818 11.7444L49.9885 39.2876L50.2909 39.4859L67.6842 11.9427L67.3818 11.7444Z" fill="#60CAE7"/>
<path id="Vector_156" d="M67.683 11.9412L50.2897 39.4844L50.5922 39.6827L67.9854 12.1395L67.683 11.9412Z" fill="#61CBE7"/>
<path id="Vector_157" d="M67.9884 12.1479L68.2909 12.3457L51.0178 39.6948H50.6068L50.5954 39.689L67.9884 12.1479Z" fill="#62CCE8"/>
<path id="Vector_158" d="M68.2909 12.3457L68.5934 12.5435L51.4459 39.6948H51.0178L68.2909 12.3457Z" fill="#63CDE8"/>
<path id="Vector_159" d="M68.5934 12.5435L68.896 12.7412L51.874 39.6948H51.4459L68.5934 12.5435Z" fill="#64CEE9"/>
<path id="Vector_160" d="M68.896 12.7412L69.1985 12.9419L52.3021 39.6948H51.874L68.896 12.7412Z" fill="#65CFE9"/>
<path id="Vector_161" d="M69.1985 12.9419L69.501 13.1397L52.7303 39.6948H52.3022L69.1985 12.9419Z" fill="#66D0EA"/>
<path id="Vector_162" d="M69.501 13.1396L69.8064 13.3374L53.1584 39.6948H52.7303L69.501 13.1396Z" fill="#67D1EA"/>
<path id="Vector_163" d="M69.8064 13.3374L70.109 13.5352L53.5865 39.6948H53.1584L69.8064 13.3374Z" fill="#68D2EB"/>
<path id="Vector_164" d="M70.109 13.5352L70.4115 13.7358L54.0146 39.6948H53.5865L70.109 13.5352Z" fill="#69D3EB"/>
<path id="Vector_165" d="M70.4115 13.7358L70.714 13.9336L54.4427 39.6948H54.0146L70.4115 13.7358Z" fill="#6AD4EC"/>
<path id="Vector_166" d="M70.714 13.9336L71.0166 14.1314L54.868 39.6948H54.4427L70.714 13.9336Z" fill="#6BD5EC"/>
<path id="Vector_167" d="M71.0166 14.1313L71.3191 14.3291L55.2961 39.6948H54.868L71.0166 14.1313Z" fill="#6CD6ED"/>
<path id="Vector_168" d="M71.3191 14.3291L71.6216 14.5269L55.7242 39.6948H55.2961L71.3191 14.3291Z" fill="#6DD7ED"/>
<path id="Vector_169" d="M71.6217 14.5269L71.9242 14.7275L56.1524 39.6948H55.7242L71.6217 14.5269Z" fill="#6ED8EE"/>
<path id="Vector_170" d="M71.9242 14.7275L72.2267 14.9253L56.5805 39.6948H56.1523L71.9242 14.7275Z" fill="#6FD9EE"/>
<path id="Vector_171" d="M72.2267 14.9253L72.4665 15.0823V15.2219L57.0086 39.6948H56.5805L72.2267 14.9253Z" fill="#70DAEF"/>
<path id="Vector_172" d="M72.4664 15.8993L57.4367 39.6946H57.0086L72.4664 15.2217V15.8993Z" fill="#71DBEF"/>
<path id="Vector_173" d="M72.4665 16.577L57.8648 39.6947H57.4367L72.4665 15.8994V16.577Z" fill="#72DCF0"/>
<path id="Vector_174" d="M72.4664 17.2548L58.2929 39.6948H57.8648L72.4664 16.5771V17.2548Z" fill="#73DDF0"/>
<path id="Vector_175" d="M72.4665 17.932L58.7211 39.6944H58.2929L72.4665 17.2544V17.932Z" fill="#74DEF1"/>
<path id="Vector_176" d="M72.4665 18.6098L59.1492 39.6945H58.7211L72.4665 17.9321V18.6098Z" fill="#75DFF1"/>
<path id="Vector_177" d="M72.4665 19.2875L59.5773 39.6946H59.1492L72.4665 18.6099V19.2875Z" fill="#76E0F2"/>
<path id="Vector_178" d="M72.4665 19.9652L60.0054 39.6948H59.5773L72.4665 19.2876V19.9652Z" fill="#77E1F2"/>
<path id="Vector_179" d="M72.4665 20.643L60.4335 39.6949H60.0054L72.4665 19.9653V20.643Z" fill="#78E2F3"/>
<path id="Vector_180" d="M72.4665 21.3202L60.8616 39.6945H60.4335L72.4665 20.6426V21.3202Z" fill="#79E3F3"/>
<path id="Vector_181" d="M72.4665 21.9979L61.2898 39.6946H60.8616L72.4665 21.3203V21.9979Z" fill="#7AE4F4"/>
<path id="Vector_182" d="M72.4665 22.6757L61.7179 39.6947H61.2898L72.4665 21.998V22.6757Z" fill="#7BE5F4"/>
<path id="Vector_183" d="M72.4665 23.3534L62.146 39.6948H61.7179L72.4665 22.6758V23.3534Z" fill="#7CE6F5"/>
<path id="Vector_184" d="M72.4665 24.0306L62.5741 39.6945H62.146L72.4665 23.353V24.0306Z" fill="#7DE7F5"/>
<path id="Vector_185" d="M72.4664 24.7084L63.0022 39.6946H62.5741L72.4664 24.0308V24.7084Z" fill="#7EE8F6"/>
<path id="Vector_186" d="M72.4665 25.3861L63.4303 39.6947H63.0022L72.4665 24.7085V25.3861Z" fill="#7FE9F6"/>
<path id="Vector_187" d="M72.4664 26.0639L63.8584 39.6948H63.4303L72.4664 25.3862V26.0639Z" fill="#80EAF7"/>
<path id="Vector_188" d="M72.4665 26.7411L64.2837 39.6944H63.8585L72.4665 26.0635V26.7411Z" fill="#81EBF7"/>
<path id="Vector_189" d="M72.4665 27.4188L64.7118 39.6945H64.2837L72.4665 26.7412V27.4188Z" fill="#82ECF8"/>
<path id="Vector_190" d="M72.4664 28.0966L65.1399 39.6946H64.7118L72.4664 27.4189V28.0966Z" fill="#83EDF8"/>
<path id="Vector_191" d="M72.4665 28.7743L65.5681 39.6948H65.14L72.4665 28.0967V28.7743Z" fill="#84EEF9"/>
<path id="Vector_192" d="M72.4664 29.452L65.9962 39.6949H65.5681L72.4664 28.7744V29.452Z" fill="#85EFF9"/>
<path id="Vector_193" d="M72.4665 30.1293L66.4243 39.6945H65.9962L72.4665 29.4517V30.1293Z" fill="#86F0FA"/>
<path id="Vector_194" d="M72.4665 30.807L66.8524 39.6946H66.4243L72.4665 30.1294V30.807Z" fill="#87F1FA"/>
<path id="Vector_195" d="M66.8524 39.6947L72.4665 30.8071V39.6947H66.8524Z" fill="#87F1FA"/>
</g>
</g>
</g>
<path id="Vector_196" d="M98.4531 29.4375H80.0042L76.1996 39.7327H72.9716L87.5875 0.823242H90.7898L105.54 39.7327H102.286L98.456 29.4375H98.4531ZM97.3771 26.4943L89.2144 4.56615H89.163L81.0802 26.4943H97.3771Z" fill="#80EBF8"/>
<path id="Vector_197" d="M109.082 36.2282L110.683 33.954C111.785 35.0417 112.983 35.8647 114.279 36.426C115.575 36.9873 117.182 37.2694 119.108 37.2694C121.035 37.2694 122.485 36.8331 123.569 35.9607C124.654 35.0882 125.196 33.9743 125.196 32.6191C125.196 32.2817 125.162 31.9677 125.091 31.6826C125.019 31.3976 124.894 31.1301 124.711 30.88C124.528 30.6299 124.349 30.4088 124.172 30.2111C123.997 30.0162 123.729 29.8155 123.372 29.6091C123.013 29.4026 122.713 29.2339 122.468 29.1001C122.222 28.9663 121.845 28.8006 121.34 28.6057C120.832 28.4109 120.43 28.2567 120.133 28.152C119.836 28.0473 119.371 27.8845 118.743 27.6693C118.409 27.5442 118.158 27.4541 117.981 27.4017C117.019 27.0614 116.206 26.7503 115.541 26.4653C114.876 26.1802 114.185 25.8109 113.469 25.3543C112.752 24.9006 112.179 24.4237 111.75 23.9234C111.322 23.4232 110.971 22.8096 110.7 22.0796C110.429 21.3496 110.295 20.547 110.295 19.6716C110.295 17.7114 111.065 16.0886 112.604 14.8032C114.142 13.5207 116.094 12.8779 118.455 12.8779C121.743 12.8779 124.631 13.9569 127.114 16.1148L125.539 18.3891C123.438 16.5161 120.981 15.5826 118.164 15.5826C117.27 15.5826 116.448 15.7396 115.698 16.0508C114.944 16.362 114.333 16.8361 113.86 17.4671C113.386 18.1011 113.152 18.834 113.152 19.6745C113.152 20.0671 113.203 20.4306 113.309 20.7709C113.414 21.1112 113.54 21.4049 113.688 21.6521C113.837 21.8993 114.065 22.1523 114.371 22.4024C114.676 22.6525 114.947 22.8532 115.184 23.0044C115.421 23.1557 115.769 23.3331 116.234 23.5396C116.697 23.746 117.071 23.9002 117.35 24.0078C117.63 24.1154 118.05 24.2666 118.609 24.4615C118.732 24.5138 118.829 24.5516 118.897 24.5691C121.697 25.5841 123.472 26.2791 124.226 26.6543C126.027 27.582 127.191 28.7482 127.716 30.1587C127.979 30.9265 128.11 31.7902 128.11 32.7529C128.11 33.7155 127.919 34.6549 127.534 35.5215C127.148 36.3853 126.595 37.1531 125.867 37.8219C125.142 38.4908 124.2 39.0201 123.047 39.4128C121.894 39.8054 120.59 40.0002 119.137 40.0002C115.235 40.0002 111.885 38.7439 109.085 36.2311L109.082 36.2282Z" fill="#80EBF8"/>
<path id="Vector_198" d="M135.365 7.16023C135.006 6.94502 134.723 6.66001 134.512 6.30521C134.301 5.94749 134.198 5.54906 134.198 5.10119C134.198 4.42357 134.426 3.84774 134.88 3.3766C135.334 2.90547 135.905 2.66699 136.587 2.66699C137.269 2.66699 137.817 2.90256 138.279 3.3766C138.742 3.84774 138.976 4.42357 138.976 5.10119C138.976 5.77881 138.745 6.32266 138.279 6.78507C137.817 7.24748 137.252 7.48014 136.587 7.48014C136.133 7.48014 135.725 7.37253 135.365 7.16023ZM135.117 13.125H137.951V39.7326H135.117V13.125Z" fill="#80EBF8"/>
<path id="Vector_199" d="M170.756 13.125V39.7325H168.054V34.6256H167.974C166.923 36.3182 165.551 37.6386 163.852 38.5838C162.154 39.5289 160.213 40.0001 158.027 40.0001C156.277 40.0001 154.625 39.6802 153.067 39.0374C151.508 38.3947 150.153 37.5048 148.999 36.3619C147.846 35.2189 146.93 33.8113 146.257 32.1362C145.583 30.461 145.246 28.6347 145.246 26.6541C145.246 24.0862 145.78 21.7567 146.847 19.6627C147.915 17.5688 149.419 15.9111 151.363 14.6896C153.304 13.4682 155.493 12.8574 157.924 12.8574C159.971 12.8574 161.86 13.3402 163.593 14.2999C165.325 15.2625 166.732 16.6091 167.817 18.3366H167.922V13.1221H170.756V13.125ZM161.963 36.4956C163.153 35.978 164.195 35.2654 165.085 34.3552C165.979 33.4449 166.689 32.3281 167.223 30.9991C167.757 29.67 168.022 28.2304 168.022 26.6803C168.022 24.6474 167.605 22.7891 166.775 21.1052C165.944 19.4213 164.78 18.0835 163.284 17.0947C161.789 16.1059 160.105 15.6115 158.233 15.6115C156.851 15.6115 155.547 15.8733 154.322 16.3997C153.098 16.9261 152.028 17.6618 151.109 18.607C150.19 19.5522 149.465 20.7242 148.931 22.1231C148.397 23.522 148.132 25.043 148.132 26.6832C148.132 28.6608 148.551 30.4581 149.391 32.0722C150.23 33.6863 151.42 34.9572 152.958 35.882C154.497 36.8068 156.246 37.2721 158.207 37.2721C159.52 37.2721 160.77 37.0133 161.96 36.4956H161.963Z" fill="#80EBF8"/>
</g>
</svg>
